<svg height="464pt" viewBox="0 -16 464 464" width="464pt" xmlns="http://www.w3.org/2000/svg"><path d="m88 144h288v112c0 79.527344-64.472656 144-144 144s-144-64.472656-144-144zm0 0" fill="#ffdaaa"/><path d="m456 136-224 104-224-104 224-136zm0 0" fill="#57565c"/><path d="m192 336c-.007812 51.976562-41.382812 94.507812-93.339844 95.949219-51.957031 1.441406-95.625-38.734375-98.511718-90.632813-2.886719-51.894531 36.054687-96.664062 87.851562-100.996094 2.640625-.242187 5.28125-.320312 8-.320312 53.019531 0 96 42.980469 96 96zm0 0" fill="#ffda44"/><path d="m112 328h-8v-32h8c8.835938 0 16 7.164062 16 16h16c0-17.671875-14.328125-32-32-32h-8v-16h-16v16h-8c-17.671875 0-32 14.328125-32 32s14.328125 32 32 32h8v32h-8c-8.835938 0-16-7.164062-16-16h-16c0 17.671875 14.328125 32 32 32h8v16h16v-16h8c17.671875 0 32-14.328125 32-32s-14.328125-32-32-32zm-32 0c-8.835938 0-16-7.164062-16-16s7.164062-16 16-16h8v32zm32 48h-8v-32h8c8.835938 0 16 7.164062 16 16s-7.164062 16-16 16zm0 0" fill="#fff"/><path d="m433.265625 144.105469-200-32-2.53125 15.789062 193.265625 30.929688v65.175781h16v-72c0-3.929688-2.855469-7.273438-6.734375-7.894531zm0 0" fill="#898890"/><g fill="#d80027"><path d="m256 120c.015625 1.261719-.089844 2.519531-.320312 3.761719-2.09375 12.640625-13.792969 21.371093-26.507813 19.78125-12.710937-1.589844-21.898437-12.9375-20.8125-25.703125s12.058594-22.398438 24.859375-21.816406c12.796875.582031 22.855469 11.164062 22.78125 23.976562zm0 0"/><path d="m432 344h-32l15.761719-102.398438c9.144531 8.53125 23.332031 8.53125 32.476562 0l15.761719 102.398438zm0 0"/><path d="m418 224-18 120h64l-18-120zm0 0"/></g><path d="m448.238281 241.601562c-7 6.433594-17.140625 8.128907-25.855469 4.316407-8.714843-3.8125-14.355468-12.40625-14.382812-21.917969 0-13.253906 10.746094-24 24-24s24 10.746094 24 24c.027344 6.703125-2.792969 13.101562-7.761719 17.601562zm0 0" fill="#e5556f"/><path d="m424 280h16v64h-16zm0 0" fill="#e5556f"/></svg>